<svg width="34" height="34" viewBox="0 0 34 34" fill="none" xmlns="http://www.w3.org/2000/svg">
<path fill-rule="evenodd" clip-rule="evenodd" d="M10.8125 0.5H23.1875C28.8821 0.5 33.5 5.11794 33.5 10.8125V23.1875C33.5 28.8821 28.8821 33.5 23.1875 33.5H10.8125C5.11794 33.5 0.5 28.8821 0.5 23.1875V10.8125C0.5 5.11794 5.11794 0.5 10.8125 0.5ZM23.1875 30.4062C27.1681 30.4062 30.4062 27.1681 30.4062 23.1875V10.8125C30.4062 6.83187 27.1681 3.59375 23.1875 3.59375H10.8125C6.83187 3.59375 3.59375 6.83187 3.59375 10.8125V23.1875C3.59375 27.1681 6.83187 30.4062 10.8125 30.4062H23.1875Z" fill="white"/>
<path fill-rule="evenodd" clip-rule="evenodd" d="M8.75 17C8.75 12.4439 12.4439 8.75 17 8.75C21.5561 8.75 25.25 12.4439 25.25 17C25.25 21.5561 21.5561 25.25 17 25.25C12.4439 25.25 8.75 21.5561 8.75 17ZM11.8438 17C11.8438 19.8421 14.1579 22.1562 17 22.1562C19.8421 22.1562 22.1562 19.8421 22.1562 17C22.1562 14.1558 19.8421 11.8438 17 11.8438C14.1579 11.8438 11.8438 14.1558 11.8438 17Z" fill="white"/>
<circle cx="25.8688" cy="8.13142" r="1.09931" fill="white"/>
</svg>
