<svg width="34" height="28" viewBox="0 0 34 28" fill="none" xmlns="http://www.w3.org/2000/svg">
<path d="M33.5 3.67419C32.2728 4.2125 30.9652 4.56931 29.6019 4.74256C31.0044 3.90519 32.0748 2.58931 32.5781 1.00325C31.2704 1.78288 29.8267 2.33356 28.2881 2.64088C27.0464 1.31881 25.2768 0.5 23.3463 0.5C19.6008 0.5 16.5854 3.54012 16.5854 7.26706C16.5854 7.80331 16.6308 8.31894 16.7422 8.80981C11.1178 8.5355 6.14094 5.83981 2.79763 1.73338C2.21394 2.74606 1.87156 3.90519 1.87156 5.153C1.87156 7.496 3.07812 9.57294 4.87663 10.7754C3.78969 10.7547 2.72337 10.4392 1.82 9.94213C1.82 9.96275 1.82 9.98956 1.82 10.0164C1.82 13.304 4.16506 16.0347 7.24025 16.6638C6.68956 16.8144 6.08938 16.8866 5.4665 16.8866C5.03338 16.8866 4.59613 16.8618 4.18569 16.7711C5.06225 19.4503 7.54963 21.4199 10.5072 21.4839C8.2055 23.2844 5.28294 24.3693 2.11906 24.3693C1.56425 24.3693 1.03212 24.3446 0.5 24.2765C3.49681 26.2091 7.04844 27.3125 10.8785 27.3125C23.3278 27.3125 30.134 17 30.134 8.06112C30.134 7.76206 30.1237 7.47331 30.1092 7.18662C31.4519 6.23375 32.5801 5.04369 33.5 3.67419Z" fill="white"/>
</svg>
